<svg width="40.000000" height="40.000000" viewBox="0 0 40 40" fill="none" xmlns="http://www.w3.org/2000/svg" xmlns:xlink="http://www.w3.org/1999/xlink">
	<desc>
			Created with Pixso.
	</desc>
	<defs>
		<clipPath id="clip202_99">
			<rect width="40.111034" height="40.000000" transform="translate(-0.207336 -0.783203)" fill="white" fill-opacity="0"/>
		</clipPath>
	</defs>
	<rect width="40.111034" height="40.000000" transform="translate(-0.207336 -0.783203)" fill="#FFFFFF" fill-opacity="0"/>
	<g clip-path="url(#clip202_99)">
		<path d="M34.02 -0.79L5.66 -0.79C2.42 -0.79 -0.21 1.84 -0.21 5.07L-0.21 33.35C-0.21 36.58 2.42 39.21 5.66 39.21L34.02 39.21C37.26 39.21 39.9 36.58 39.9 33.35L39.9 5.07C39.9 1.84 37.26 -0.79 34.02 -0.79ZM37.55 33.35C37.55 35.29 35.97 36.87 34.02 36.87L5.66 36.87C3.72 36.87 2.14 35.29 2.14 33.35L2.14 5.07C2.14 3.13 3.72 1.56 5.66 1.56L34.02 1.56C35.97 1.56 37.55 3.13 37.55 5.07L37.55 33.35Z" fill="#070707" fill-opacity="1.000000" fill-rule="nonzero"/>
		<path d="M5.66 -0.79C2.42 -0.79 -0.21 1.84 -0.21 5.07L-0.21 33.35C-0.21 36.58 2.42 39.21 5.66 39.21L34.02 39.21C37.26 39.21 39.9 36.58 39.9 33.35L39.9 5.07C39.9 1.84 37.26 -0.79 34.02 -0.79L5.66 -0.79ZM34.02 36.87L5.66 36.87C3.72 36.87 2.14 35.29 2.14 33.35L2.14 5.07C2.14 3.13 3.72 1.56 5.66 1.56L34.02 1.56C35.97 1.56 37.55 3.13 37.55 5.07L37.55 33.35C37.55 35.29 35.97 36.87 34.02 36.87Z" stroke="#070707" stroke-opacity="1.000000" stroke-width="0.500000"/>
		<path d="M18.67 15.7C18.67 13.11 16.56 11.01 13.97 11.01L6.92 11.01L6.92 27.41L13.97 27.41C16.56 27.41 18.67 25.31 18.67 22.73C18.67 21.33 18.05 20.07 17.07 19.21C18.05 18.35 18.67 17.1 18.67 15.7ZM16.32 22.73C16.32 24.02 15.26 25.07 13.97 25.07L9.27 25.07L9.27 20.38L13.97 20.38C15.26 20.38 16.32 21.43 16.32 22.73ZM9.27 18.04L9.27 13.35L13.97 13.35C15.26 13.35 16.32 14.4 16.32 15.7C16.32 16.99 15.26 18.04 13.97 18.04L9.27 18.04Z" fill="#070707" fill-opacity="1.000000" fill-rule="nonzero"/>
		<path d="M13.97 11.01L6.92 11.01L6.92 27.41L13.97 27.41C16.56 27.41 18.67 25.31 18.67 22.73C18.67 21.33 18.05 20.07 17.07 19.21C18.05 18.35 18.67 17.1 18.67 15.7C18.67 13.11 16.56 11.01 13.97 11.01ZM13.97 25.07L9.27 25.07L9.27 20.38L13.97 20.38C15.26 20.38 16.32 21.43 16.32 22.73C16.32 24.02 15.26 25.07 13.97 25.07ZM9.27 13.35L13.97 13.35C15.26 13.35 16.32 14.4 16.32 15.7C16.32 16.99 15.26 18.04 13.97 18.04L9.27 18.04L9.27 13.35Z" stroke="#070707" stroke-opacity="1.000000" stroke-width="0.500000"/>
		<path d="M26.89 15.7C23.65 15.7 21.02 18.32 21.02 21.56C21.02 24.79 23.65 27.41 26.89 27.41C28.99 27.41 30.94 26.29 31.98 24.49L29.95 23.31C29.32 24.4 28.15 25.07 26.89 25.07C25.36 25.07 24.06 24.09 23.57 22.73L32.77 22.73L32.77 21.56C32.77 18.32 30.13 15.7 26.89 15.7ZM23.57 20.38C24.06 19.02 25.36 18.04 26.89 18.04C28.43 18.04 29.73 19.02 30.22 20.38L23.57 20.38Z" fill="#070707" fill-opacity="1.000000" fill-rule="nonzero"/>
		<path d="M21.02 21.56C21.02 24.79 23.65 27.41 26.89 27.41C28.99 27.41 30.94 26.29 31.98 24.49L29.95 23.31C29.32 24.4 28.15 25.07 26.89 25.07C25.36 25.07 24.06 24.09 23.57 22.73L32.77 22.73L32.77 21.56C32.77 18.32 30.13 15.7 26.89 15.7C23.65 15.7 21.02 18.32 21.02 21.56ZM26.89 18.04C28.43 18.04 29.73 19.02 30.22 20.38L23.57 20.38C24.06 19.02 25.36 18.04 26.89 18.04Z" stroke="#070707" stroke-opacity="1.000000" stroke-width="0.500000"/>
		<path d="M22.19 11.01L31.59 11.01L31.59 13.35L22.19 13.35L22.19 11.01Z" fill="#070707" fill-opacity="1.000000" fill-rule="nonzero"/>
		<path d="M31.59 11.01L31.59 13.35L22.19 13.35L22.19 11.01L31.59 11.01Z" stroke="#070707" stroke-opacity="1.000000" stroke-width="0.500000"/>
	</g>
</svg>
