<svg width="39.000000" height="40.000000" viewBox="0 0 39 40" fill="none" xmlns="http://www.w3.org/2000/svg" xmlns:xlink="http://www.w3.org/1999/xlink">
	<desc>
			Created with Pixso.
	</desc>
	<defs/>
	<path d="M18.62 0C7.85 0 -0.93 8.98 -0.93 19.99C-0.93 31.01 7.85 39.99 18.62 39.99C29.4 39.99 38.18 31.01 38.18 19.99C38.18 8.98 29.4 0 18.62 0ZM18.62 3.07C22.55 3.07 26.15 4.47 28.98 6.8C27.54 8.61 24.9 11.12 20.47 12.76C18.06 8.31 16.05 5.47 14.65 3.58C15.92 3.26 17.25 3.07 18.62 3.07ZM11.67 4.66C12.84 6.21 14.97 9.12 17.5 13.68C11 15.42 5.13 15.53 2.69 15.46C4 10.65 7.31 6.72 11.67 4.66ZM31.14 8.94C33.64 11.91 35.17 15.76 35.17 19.99C35.17 20.63 35.13 21.24 35.07 21.86C34.52 21.78 34.12 21.72 33.42 21.66C31.09 21.47 28.01 21.47 24.67 21.98C23.8 19.67 22.84 17.52 21.85 15.51C26.49 13.7 29.44 11.01 31.14 8.94ZM18.93 16.47C19.88 18.37 20.8 20.41 21.65 22.6C17.69 23.8 14.09 26.54 11.33 29.09C9.85 30.44 8.64 31.72 7.74 32.73C4.27 29.63 2.07 25.09 2.07 20C2.07 19.49 2.11 19.01 2.14 18.52C4.29 18.61 11.14 18.68 18.93 16.47ZM28.88 24.64C31.19 24.55 33.02 24.72 34.47 24.88C33.38 28.64 31.03 31.84 27.94 33.99C27.44 30.83 26.67 27.79 25.74 24.93C26.82 24.78 27.89 24.69 28.88 24.64ZM22.73 25.48C23.8 28.65 24.65 32.02 25.13 35.56C23.13 36.43 20.94 36.92 18.62 36.92C15.52 36.92 12.66 36.04 10.18 34.55C11.02 33.64 12.05 32.53 13.33 31.37C15.99 28.93 19.46 26.44 22.73 25.48Z" fill="#070707" fill-opacity="1.000000" fill-rule="nonzero"/>
	<path d="M18.62 0C7.85 0 -0.93 8.98 -0.93 19.99C-0.93 31.01 7.85 39.99 18.62 39.99C29.4 39.99 38.18 31.01 38.18 19.99C38.18 8.98 29.4 0 18.62 0ZM1.51 27.45Q0.07 24.02 0.07 19.99Q0.07 15.96 1.51 12.53Q2.87 9.28 5.52 6.56Q8.39 3.63 11.88 2.24Q15 1 18.62 1Q22.25 1 25.37 2.24Q28.86 3.63 31.73 6.56Q34.38 9.28 35.74 12.53Q37.18 15.96 37.18 19.99Q37.18 24.02 35.74 27.45Q34.38 30.71 31.73 33.43Q28.86 36.36 25.37 37.75Q22.25 38.99 18.62 38.99Q15 38.99 11.88 37.75Q8.39 36.36 5.52 33.43Q2.87 30.71 1.51 27.45ZM28.81 8.53Q29.3 8 29.76 7.42L30.37 6.66L29.61 6.03Q27.17 4.01 24.36 3.02Q21.66 2.07 18.62 2.07Q16.56 2.07 14.41 2.61L12.95 2.97L13.85 4.18Q16.94 8.34 19.59 13.24L20 14L20.82 13.7Q25.66 11.9 28.81 8.53ZM28.19 6.19C25.49 4.22 22.2 3.07 18.62 3.07C17.63 3.07 16.66 3.17 15.72 3.35C15.36 3.41 15 3.49 14.65 3.58C14.85 3.85 15.06 4.14 15.29 4.46C16.64 6.32 18.41 8.95 20.47 12.76C24.3 11.34 26.79 9.27 28.33 7.57C28.42 7.46 28.52 7.35 28.61 7.25C28.74 7.1 28.86 6.95 28.98 6.8C28.82 6.67 28.66 6.55 28.5 6.43C28.4 6.35 28.29 6.27 28.19 6.19ZM2.66 16.46Q10.11 16.69 17.76 14.64L18.99 14.31L18.37 13.19Q15.57 8.15 12.46 4.05L11.97 3.41L11.24 3.75Q7.74 5.4 5.42 8.08Q2.86 11.02 1.73 15.19L1.39 16.42L2.66 16.46ZM16.99 12.78C14.69 8.73 12.76 6.1 11.67 4.66C7.61 6.57 4.46 10.11 2.99 14.46C2.88 14.79 2.78 15.12 2.69 15.46C2.99 15.47 3.33 15.47 3.72 15.47C6.4 15.48 11.18 15.24 16.5 13.93C16.83 13.85 17.16 13.77 17.5 13.68C17.33 13.37 17.16 13.07 16.99 12.78ZM36.06 21.97Q36.17 20.95 36.17 19.99Q36.17 16.67 35.1 13.74Q34.03 10.82 31.9 8.29L31.13 7.37L30.36 8.3Q29.96 8.8 29.52 9.27Q26.32 12.69 21.49 14.58L20.47 14.98L20.95 15.95Q22.56 19.24 23.73 22.34L24.02 23.1L24.82 22.97Q28.01 22.49 31.18 22.55Q32.26 22.57 33.34 22.65Q33.89 22.7 34.65 22.81Q34.83 22.84 34.93 22.85L35.95 22.99L36.06 21.97ZM34.08 21.72C33.88 21.7 33.67 21.68 33.42 21.66C31.09 21.47 28.01 21.47 24.67 21.98C23.93 20.01 23.12 18.16 22.29 16.42C22.14 16.11 22 15.81 21.85 15.51C22.17 15.39 22.47 15.26 22.78 15.13C26.36 13.56 28.85 11.49 30.48 9.7C30.71 9.44 30.93 9.18 31.14 8.94C31.36 9.2 31.57 9.46 31.77 9.74C33.9 12.59 35.17 16.13 35.17 19.99C35.17 20.29 35.16 20.57 35.15 20.86C35.13 21.2 35.1 21.53 35.07 21.86C34.72 21.81 34.42 21.76 34.08 21.72ZM12.01 29.83Q17.27 24.98 21.94 23.56L22.98 23.24L22.58 22.24Q21.37 19.12 19.82 16.02L19.45 15.28L18.65 15.5Q10.61 17.79 2.64 17.54Q2.41 17.53 2.19 17.52L1.22 17.48L1.15 18.45L1.15 18.47Q1.07 19.46 1.07 20Q1.07 24.12 2.62 27.54Q4.12 30.84 7.07 33.48L7.82 34.15L8.48 33.4Q10.24 31.44 12.01 29.83ZM21.28 21.67C21.41 21.98 21.53 22.29 21.65 22.6C21.33 22.7 21.02 22.8 20.7 22.92C17.12 24.24 13.87 26.75 11.33 29.09C9.89 30.41 8.69 31.67 7.8 32.67L7.74 32.73C7.49 32.51 7.25 32.28 7.01 32.04C3.97 28.98 2.07 24.73 2.07 20C2.07 19.49 2.11 19.01 2.14 18.52C4.29 18.61 11.14 18.68 18.93 16.47C19.74 18.1 20.53 19.83 21.28 21.67ZM32.72 30.74Q34.52 28.28 35.43 25.16L35.76 24.02L34.58 23.88Q31.51 23.54 28.83 23.64Q27.26 23.72 25.61 23.94L24.42 24.09L24.79 25.24Q26.26 29.77 26.95 34.15L27.2 35.73L28.51 34.81Q31.02 33.07 32.72 30.74ZM21.67 37.65Q23.64 37.29 25.53 36.48L26.22 36.18L26.12 35.43Q25.43 30.33 23.68 25.16L23.37 24.26L22.45 24.52Q17.85 25.86 12.66 30.63Q11.22 31.94 9.45 33.88L8.62 34.78L9.67 35.41Q11.97 36.79 14.46 37.41Q16.47 37.92 18.62 37.92Q20.17 37.92 21.67 37.65ZM33.45 24.77C32.19 24.66 30.69 24.57 28.88 24.64C28.2 24.67 27.48 24.73 26.75 24.8C26.42 24.84 26.08 24.88 25.74 24.93C25.85 25.25 25.95 25.57 26.05 25.89C26.74 28.14 27.32 30.48 27.76 32.9C27.82 33.26 27.88 33.63 27.94 33.99C28.25 33.78 28.55 33.55 28.84 33.32C31.23 31.4 33.09 28.82 34.15 25.85C34.27 25.53 34.37 25.21 34.47 24.88C34.15 24.84 33.81 24.81 33.45 24.77ZM10.88 33.8C11.57 33.06 12.39 32.23 13.33 31.37C15.99 28.93 19.46 26.44 22.73 25.48C23.8 28.65 24.65 32.02 25.13 35.56C23.13 36.43 20.94 36.92 18.62 36.92C15.89 36.92 13.34 36.24 11.08 35.05C10.77 34.9 10.48 34.73 10.18 34.55C10.4 34.31 10.63 34.06 10.88 33.8Z" fill="#070707" fill-opacity="1.000000" fill-rule="evenodd"/>
</svg>
