<svg width="39.000000" height="40.000000" viewBox="0 0 39 40" fill="none" xmlns="http://www.w3.org/2000/svg" xmlns:xlink="http://www.w3.org/1999/xlink">
	<desc>
			Created with Pixso.
	</desc>
	<defs/>
	<path d="M10.87 0C4.62 0 -0.49 5.22 -0.49 11.62L-0.49 28.4C-0.49 34.78 4.62 39.99 10.87 39.99L27.28 39.99C33.53 39.99 38.62 34.77 38.62 28.38L38.62 11.61C38.62 5.21 33.53 0 27.27 0L10.87 0L10.87 0ZM10.87 3.08L27.27 3.08C31.9 3.08 35.61 6.88 35.61 11.62L35.61 28.39C35.61 33.13 31.9 36.93 27.28 36.93L10.87 36.93C6.23 36.93 2.52 33.13 2.52 28.41L2.52 11.63C2.53 6.88 6.24 3.08 10.87 3.08ZM31.11 6.16C30.27 6.16 29.61 6.84 29.61 7.69C29.61 8.55 30.27 9.23 31.11 9.23C31.95 9.23 32.61 8.55 32.61 7.69C32.61 6.84 31.95 6.16 31.11 6.16ZM19.08 9.23C13.29 9.23 8.55 14.08 8.55 20C8.55 25.92 13.29 30.77 19.08 30.77C24.87 30.77 29.61 25.92 29.61 20C29.61 14.08 24.87 9.23 19.08 9.23ZM19.08 12.31C23.25 12.31 26.6 15.73 26.6 20C26.6 24.27 23.25 27.69 19.08 27.69C14.9 27.69 11.56 24.27 11.56 20C11.56 15.73 14.9 12.31 19.08 12.31Z" fill="#070707" fill-opacity="1.000000" fill-rule="nonzero"/>
	<path d="M10.87 0C4.62 0 -0.49 5.22 -0.49 11.62L-0.49 28.4C-0.49 34.78 4.62 39.99 10.87 39.99L27.28 39.99C33.53 39.99 38.62 34.77 38.62 28.38L38.62 11.61C38.62 5.21 33.53 0 27.27 0L10.87 0L10.87 0ZM11.87 1L11.87 1L10.87 1Q8.87 1 7.13 1.69Q5.17 2.46 3.56 4.11Q2.07 5.64 1.31 7.47Q0.51 9.38 0.51 11.62L0.51 28.4Q0.51 30.63 1.3 32.53Q2.07 34.36 3.56 35.89Q5.17 37.53 7.12 38.3Q8.86 38.99 10.87 38.99L27.28 38.99Q29.28 38.99 31 38.31Q32.96 37.54 34.58 35.89Q36.06 34.37 36.82 32.54Q37.62 30.63 37.62 28.38L37.62 11.61Q37.62 9.36 36.82 7.44Q36.06 5.62 34.58 4.1Q32.97 2.46 31.01 1.68Q29.28 1 27.27 1L11.87 1ZM30.84 2.76Q29.2 2.08 27.27 2.08L10.87 2.08Q8.95 2.08 7.31 2.76Q5.63 3.46 4.25 4.87Q2.98 6.17 2.3 7.72Q1.53 9.5 1.52 11.63L1.52 28.41Q1.52 30.49 2.28 32.25Q2.95 33.82 4.24 35.14Q5.62 36.54 7.29 37.24Q8.94 37.93 10.87 37.93L27.28 37.93Q29.2 37.93 30.83 37.25Q32.51 36.55 33.89 35.13Q35.17 33.83 35.85 32.26Q36.61 30.49 36.61 28.39L36.61 11.62Q36.61 9.51 35.85 7.74Q35.17 6.18 33.89 4.87Q32.51 3.46 30.84 2.76ZM10.87 3.08L27.27 3.08C31.9 3.08 35.61 6.88 35.61 11.62L35.61 28.39C35.61 33.13 31.9 36.93 27.28 36.93L10.87 36.93C6.23 36.93 2.52 33.13 2.52 28.41L2.52 11.63C2.53 6.88 6.24 3.08 10.87 3.08ZM31.11 6.16C30.27 6.16 29.61 6.84 29.61 7.69C29.61 8.55 30.27 9.23 31.11 9.23C31.95 9.23 32.61 8.55 32.61 7.69C32.61 6.84 31.95 6.16 31.11 6.16ZM30.75 8.12Q30.61 7.98 30.61 7.69Q30.61 7.41 30.75 7.27Q30.87 7.16 31.11 7.16Q31.35 7.16 31.47 7.27Q31.61 7.41 31.61 7.69Q31.61 7.98 31.47 8.12Q31.35 8.23 31.11 8.23Q30.87 8.23 30.75 8.12ZM19.08 9.23C13.29 9.23 8.55 14.08 8.55 20C8.55 25.92 13.29 30.77 19.08 30.77C24.87 30.77 29.61 25.92 29.61 20C29.61 14.08 24.87 9.23 19.08 9.23ZM10.27 23.79Q9.55 22.05 9.55 20Q9.55 17.95 10.27 16.2Q10.97 14.51 12.36 13.09Q13.85 11.57 15.66 10.86Q17.25 10.23 19.08 10.23Q20.91 10.23 22.49 10.86Q24.3 11.57 25.8 13.09Q27.18 14.51 27.88 16.2Q28.61 17.95 28.61 20Q28.61 22.05 27.88 23.79Q27.18 25.49 25.8 26.9Q24.3 28.43 22.49 29.14Q20.91 29.77 19.08 29.77Q17.25 29.77 15.66 29.14Q13.85 28.43 12.36 26.9Q10.97 25.49 10.27 23.79ZM26.9 23.52Q27.6 21.91 27.6 20Q27.6 18.09 26.9 16.47Q26.28 15.05 25.12 13.85Q23.86 12.57 22.34 11.93Q20.84 11.31 19.08 11.31Q17.32 11.31 15.82 11.93Q14.29 12.57 13.04 13.85Q11.87 15.05 11.25 16.47Q10.56 18.09 10.56 20Q10.56 21.91 11.25 23.52Q11.87 24.95 13.04 26.14Q14.29 27.43 15.82 28.06Q17.32 28.69 19.08 28.69Q20.84 28.69 22.34 28.06Q23.86 27.43 25.12 26.14Q26.28 24.95 26.9 23.52ZM19.08 12.31C23.25 12.31 26.6 15.73 26.6 20C26.6 24.27 23.25 27.69 19.08 27.69C14.9 27.69 11.56 24.27 11.56 20C11.56 15.73 14.9 12.31 19.08 12.31Z" fill="#070707" fill-opacity="1.000000" fill-rule="evenodd"/>
</svg>
