<svg width="41.000000" height="41.000000" viewBox="0 0 41 41" fill="none" xmlns="http://www.w3.org/2000/svg" xmlns:xlink="http://www.w3.org/1999/xlink">
	<desc>
			Created with Pixso.
	</desc>
	<defs/>
	<path d="M34.28 -0.15L5.88 -0.15C2.63 -0.15 0 2.49 0 5.72L0 34.05C0 37.28 2.63 39.91 5.88 39.91L34.28 39.91C37.52 39.91 40.16 37.28 40.16 34.05L40.16 5.72C40.16 2.49 37.52 -0.15 34.28 -0.15ZM37.81 34.05C37.81 35.99 36.22 37.57 34.28 37.57L5.88 37.57C3.93 37.57 2.35 35.99 2.35 34.05L2.35 5.72C2.35 3.78 3.93 2.2 5.88 2.2L34.28 2.2C36.22 2.2 37.81 3.78 37.81 5.72L37.81 34.05Z" fill="#070707" fill-opacity="1.000000" fill-rule="nonzero"/>
	<path d="M5.88 -0.15C2.63 -0.15 0 2.49 0 5.72L0 34.05C0 37.28 2.63 39.91 5.88 39.91L34.28 39.91C37.52 39.91 40.16 37.28 40.16 34.05L40.16 5.72C40.16 2.49 37.52 -0.15 34.28 -0.15L5.88 -0.15ZM34.28 37.57L5.88 37.57C3.93 37.57 2.35 35.99 2.35 34.05L2.35 5.72C2.35 3.78 3.93 2.2 5.88 2.2L34.28 2.2C36.22 2.2 37.81 3.78 37.81 5.72L37.81 34.05C37.81 35.99 36.22 37.57 34.28 37.57Z" stroke="#070707" stroke-opacity="1.000000" stroke-width="0.500000"/>
	<path d="M31.12 28.89C29.69 28.89 28.26 28.89 26.81 28.89C26.81 28.82 26.81 28.76 26.81 28.69C26.81 26.36 26.81 24.02 26.81 21.69C26.81 21.19 26.77 20.7 26.65 20.22C26.13 18.22 23.91 18.33 23.02 19.28C22.58 19.76 22.29 20.3 22.28 20.96C22.27 21.12 22.26 21.28 22.26 21.44C22.26 23.85 22.26 26.27 22.26 28.68C22.26 28.75 22.26 28.81 22.26 28.89C20.82 28.89 19.39 28.89 17.96 28.89C17.96 24.43 17.96 19.98 17.96 15.52C19.39 15.52 20.82 15.52 22.26 15.52C22.26 16.13 22.26 16.72 22.26 17.32C22.27 17.32 22.28 17.33 22.29 17.33C22.33 17.29 22.36 17.25 22.39 17.21C22.82 16.61 23.31 16.08 23.97 15.72C24.71 15.32 25.5 15.18 26.33 15.21C27.22 15.23 28.07 15.43 28.84 15.92C29.82 16.53 30.42 17.44 30.77 18.52C31.04 19.36 31.13 20.24 31.13 21.12C31.13 23.66 31.13 26.2 31.13 28.73C31.13 28.78 31.13 28.83 31.12 28.89Z" fill="#070707" fill-opacity="1.000000" fill-rule="nonzero"/>
	<path d="M22.26 17.32L22.26 15.52L17.96 15.52L17.96 28.89L22.26 28.89L22.26 28.68C22.26 28.2 22.26 27.72 22.26 27.23C22.26 25.3 22.26 23.37 22.26 21.44C22.26 21.28 22.27 21.12 22.28 20.96C22.29 20.3 22.58 19.76 23.02 19.28C23.91 18.33 26.13 18.22 26.65 20.22C26.77 20.7 26.81 21.19 26.81 21.69C26.81 23.44 26.81 25.19 26.81 26.94C26.81 27.53 26.81 28.11 26.81 28.69L26.81 28.89L31.12 28.89C31.13 28.83 31.13 28.78 31.13 28.73C31.13 28.19 31.13 27.65 31.13 27.1C31.13 25.11 31.13 23.11 31.13 21.12C31.13 20.24 31.04 19.36 30.77 18.52C30.42 17.44 29.82 16.53 28.84 15.92C28.07 15.43 27.22 15.23 26.33 15.21C25.5 15.18 24.71 15.32 23.97 15.72C23.31 16.08 22.82 16.61 22.39 17.21C22.36 17.25 22.33 17.29 22.29 17.33C22.28 17.33 22.27 17.32 22.26 17.32ZM31.09 28.86Q31.09 28.85 31.1 28.84Q31.1 28.77 31.1 28.73L31.1 24.91L31.1 21.12Q31.1 19.64 30.74 18.53Q30.31 17.2 29.41 16.38Q29.13 16.14 28.82 15.94Q28.82 15.94 28.82 15.94Q27.76 15.28 26.33 15.24Q24.99 15.2 23.99 15.75Q23.53 16 23.12 16.39Q22.76 16.74 22.41 17.23Q22.39 17.25 22.36 17.3Q22.33 17.33 22.32 17.35L22.31 17.37L22.28 17.36Q22.28 17.36 22.26 17.35Q22.25 17.35 22.25 17.35L22.23 17.34L22.23 15.55L17.99 15.55L17.99 28.86L22.23 28.86L22.23 28.68L22.23 25.06L22.23 21.44Q22.23 21.34 22.24 21.16Q22.24 21.03 22.24 20.96Q22.25 20.72 22.3 20.5Q22.35 20.26 22.46 20.04Q22.64 19.64 23 19.26Q23.34 18.9 23.88 18.72Q24.25 18.6 24.61 18.59Q24.8 18.59 24.98 18.61Q25.39 18.67 25.73 18.87Q25.88 18.95 26.01 19.07Q26.06 19.11 26.11 19.16Q26.51 19.56 26.68 20.21Q26.84 20.84 26.84 21.69L26.84 28.67L26.84 28.86L31.09 28.86Z" fill="#070707" fill-opacity="1.000000" fill-rule="evenodd"/>
	<path d="M15.33 28.9C13.9 28.9 12.48 28.9 11.05 28.9C11.05 24.44 11.05 19.98 11.05 15.52C12.47 15.52 13.89 15.52 15.33 15.52C15.33 19.97 15.33 24.43 15.33 28.9Z" fill="#070707" fill-opacity="1.000000" fill-rule="nonzero"/>
	<path d="M11.05 28.9L15.33 28.9L15.33 15.52L11.05 15.52L11.05 28.9ZM11.08 15.55L11.08 28.87L15.3 28.87L15.3 15.55L11.08 15.55Z" fill="#070707" fill-opacity="1.000000" fill-rule="evenodd"/>
	<path d="M13.37 8.87C14.72 8.87 15.67 9.82 15.68 11.19C15.68 12.53 14.71 13.49 13.34 13.49C12 13.49 11.04 12.53 11.04 11.18C11.04 9.83 12.01 8.87 13.37 8.87Z" fill="#070707" fill-opacity="1.000000" fill-rule="nonzero"/>
	<path d="M13.37 8.87C14.72 8.87 15.67 9.82 15.68 11.19C15.68 12.53 14.71 13.49 13.34 13.49C12 13.49 11.04 12.53 11.04 11.18C11.04 9.83 12.01 8.87 13.37 8.87ZM15.48 10.26Q15.65 10.69 15.65 11.19Q15.65 11.68 15.48 12.1Q15.38 12.36 15.22 12.58Q15.12 12.7 15 12.82Q14.92 12.9 14.82 12.98Q14.58 13.17 14.27 13.29Q13.84 13.46 13.34 13.46Q12.85 13.46 12.43 13.29L12.43 13.29Q12.16 13.18 11.94 13.01Q11.82 12.92 11.71 12.82Q11.61 12.72 11.53 12.61Q11.35 12.38 11.24 12.1Q11.07 11.67 11.07 11.18Q11.07 10.69 11.24 10.27Q11.24 10.27 11.24 10.26Q11.35 10 11.51 9.78Q11.6 9.65 11.72 9.54Q11.81 9.44 11.92 9.36Q12.16 9.18 12.44 9.07Q12.87 8.9 13.37 8.9Q13.87 8.9 14.29 9.07Q14.56 9.17 14.78 9.34Q14.9 9.43 15.01 9.54Q15.1 9.63 15.18 9.73Q15.36 9.97 15.48 10.26Z" fill="#070707" fill-opacity="1.000000" fill-rule="evenodd"/>
</svg>
